<?xml version="1.0" encoding="UTF-8"?>
<svg fill="none" viewBox="0 0 17 16" xmlns="http://www.w3.org/2000/svg">
<path d="m8.2003 4c0.1326 0 0.25978 0.05268 0.35355 0.14645 0.09377 0.09376 0.14645 0.22094 0.14645 0.35355v5.793l2.146-2.147c0.0939-0.09389 0.2212-0.14663 0.354-0.14663s0.2601 0.05274 0.354 0.14663 0.1466 0.22122 0.1466 0.354-0.0527 0.26011-0.1466 0.354l-3 3c-0.04645 0.0466-0.10163 0.0835-0.16237 0.1087-0.06075 0.0252-0.12587 0.0382-0.19163 0.0382-0.06577 0-0.13089-0.013-0.19164-0.0382-0.06074-0.0252-0.11592-0.0621-0.16236-0.1087l-3-3c-0.09389-0.09389-0.14664-0.22122-0.14664-0.354s0.05275-0.26011 0.14664-0.354c0.09388-0.09389 0.22122-0.14663 0.354-0.14663 0.13277 0 0.26011 0.05274 0.354 0.14663l2.146 2.147v-5.793c0-0.13261 0.05267-0.25979 0.14644-0.35355 0.09377-0.09377 0.22095-0.14645 0.35356-0.14645z" clip-rule="evenodd" fill="#585CE5" fill-rule="evenodd"/>
</svg>
