<svg id="Capa_1" data-name="Capa 1" xmlns="http://www.w3.org/2000/svg" xmlns:xlink="http://www.w3.org/1999/xlink" viewBox="0 0 1920 738"><defs><style>.cls-1{fill:none;}.cls-2{clip-path:url(#clip-path);}.cls-3{fill:#a28eec;fill-opacity:0.15;fill-rule:evenodd;}.cls-4{clip-path:url(#clip-path-2);}</style><clipPath id="clip-path"><rect class="cls-1" x="1821" y="424" width="198.79" height="264.28"/></clipPath><clipPath id="clip-path-2"><rect class="cls-1" x="-88" y="50" width="176.34" height="238.26"/></clipPath></defs><title>section-bg</title><g class="cls-2"><path class="cls-3" d="M1945.4,622.6c-5.85-12.82-15.08-24.23-12.92-36.22s15.15-26.06,28.49-31.5,38.23-13,47.49-23.5,18.52-34.71,3-64-47-40.54-68.49-43-56.15,7-79,25.5-43.37,49.46-43,80,11.83,47,26,61,14.35,24.32,14,29.5-4.6,27.54,3,43,30,33.85,59,20S1951.39,635.74,1945.4,622.6Z"/></g><g class="cls-4"><path class="cls-3" d="M86.72,161.67c9.52,53.41-25,98.16-48.14,111.8s-81.64,26.77-108.93-4.21S-87,213.6-79.53,197.8s31.61-34.13,34.68-54.49-11.92-49.07-9.88-63.67,9.38-25.34,27.59-29,43.94,9.74,58.71,20.5,45.62,37.12,55.15,90.53Z"/></g></svg>