<?xml version="1.0" encoding="UTF-8"?>
<svg viewBox="0 0 30 30" xmlns="http://www.w3.org/2000/svg">
<path d="m9.1397 15.352c1.2944 0 2.3438-1.0494 2.3438-2.3438s-1.0494-2.3437-2.3438-2.3437c-1.2944 0-2.3438 1.0493-2.3438 2.3437s1.0493 2.3438 2.3438 2.3438z" fill="#8D8D8D"/>
<path d="m20.858 15.352c1.2944 0 2.3437-1.0494 2.3437-2.3438s-1.0493-2.3437-2.3437-2.3437c-1.2945 0-2.3438 1.0493-2.3438 2.3437s1.0493 2.3438 2.3438 2.3438z" fill="#8D8D8D"/>
<path d="m26.788 12.399c-0.202-7.913-6.0211-11.462-11.789-11.462-5.7671 0-11.586 3.5489-11.789 11.462-1.5576 0.2086-2.2725 1.5042-2.2725 2.715-9.38e-4 0.7181 0.23157 1.3828 0.65438 1.8726 0.2939 0.3417 0.80578 0.7388 1.6322 0.8452 0.19781 2.2383 1.9434 5.0648 6.0005 6.4683 0.06516 0.0722 0.13641 0.1392 0.20672 0.2067 0.49688 2.5898 2.8032 4.5553 5.5678 4.5553 2.7665 0 5.0718-1.9664 5.5682-4.5558 0.0704-0.068 0.1421-0.1345 0.2068-0.2067 4.0565-1.4034 5.8026-4.2295 6.0004-6.4692 1.5685-0.2025 2.288-1.5024 2.288-2.716 0-1.2112-0.7148-2.5068-2.2744-2.7154zm-11.789 15.977c-2.7558 0-4.9899-2.1979-4.9899-4.9111 0-2.0864 1.3238-2.3793 3.188-2.4042 0.0328-0.2573 0.2316-0.4594 0.4823-0.4594h2.6396c0.2507 0 0.4495 0.2025 0.4814 0.4594 1.8642 0.0249 3.1889 0.3188 3.1889 2.4042 4e-4 2.7132-2.2346 4.9111-4.9903 4.9111zm5.6643-5.0437c-0.0661-2.535-1.942-2.8847-3.3023-2.9433-0.4678-0.6914-1.3467-1.1602-2.362-1.1602-1.0135 0-1.8933 0.4688-2.3611 1.1602-1.3603 0.0586-3.2363 0.4083-3.3024 2.9433-0.51891-0.781-0.80016-1.7321-0.80016-2.8392 0-1.8291 0.71391-2.1872 1.9481-2.1872 0.5292 0 1.1573 0.0721 1.822 0.149 0.8175 0.0952 1.7442 0.2025 2.7117 0.2025 0.9685 0 1.8933-0.1073 2.7099-0.2025 0.66-0.0769 1.2834-0.149 1.808-0.149 1.2506 0 1.9279 0.3487 1.9279 2.1872 5e-4 1.1071-0.2808 2.0573-0.7997 2.8392zm5.6771-6.3896h-0.4542v0.4571c0 1.7845-1.2188 4.1273-4.2371 5.5617 0.3239-0.727 0.4946-1.5544 0.4946-2.4684 0-2.0143-0.78-2.873-2.6082-2.873-0.5639 0-1.2056 0.074-1.8858 0.1537-0.7982 0.0924-1.7029 0.1978-2.632 0.1978-0.9281 0-1.8347-0.1054-2.6348-0.1978-0.6839-0.0787-1.3313-0.1537-1.8989-0.1537-1.2239 0-2.6292 0.3267-2.6292 2.873 0 0.9135 0.17109 1.7414 0.49546 2.4684-3.0192-1.4349-4.238-3.7777-4.238-5.5617v-0.4571h-0.45375c-0.59766 0-1.0631-0.1875-1.3824-0.5573-0.27843-0.323-0.43125-0.7744-0.43125-1.2713 0-0.8845 0.47625-1.8295 1.8136-1.8295h0.45328v-0.4575c0-4.2726 1.6331-7.0903 3.9122-8.8003 1.7259 2.077 3.5578 3.3075 7.4297 3.3127-1.8146-1.372-0.9075-3.2016-0.9075-3.2016s3.629 2.2866 6.8043 1.372c0 0-1.8145-0.4575-2.2678-1.8291 0 0 1.3552 0.34078 2.602 0.13781 2.43 1.6856 4.2024 4.5562 4.2024 9.0084v0.4575h0.4542c1.3378 0 1.8145 0.9455 1.8145 1.8295-9e-4 0.8841-0.4776 1.8286-1.8154 1.8286z" fill="#8D8D8D"/>
<path d="m16.817 21.957h-0.0037v0.4045c0 0.2902-0.2217 0.5264-0.4945 0.5264h-2.6396c-0.2737 0-0.4954-0.2362-0.4954-0.5264v-0.4045h-0.0038c-1.1316 0-1.9509 0.2114-1.9509 1.5089 0 1.9289 1.8098 3.2503 3.7692 3.2503 1.9603 0 3.7701-1.3209 3.7701-3.2503 5e-4 -1.2975-0.8198-1.5089-1.9514-1.5089zm-0.1125 3.6511c-0.5311 0.0881-1.0968 0.1382-1.7057 0.1382-0.608 0-1.1738-0.0501-1.7049-0.1382-0.7992-0.4275-1.3842-1.1644-1.3842-2.1422 0-0.436 0.0328-0.6938 0.6352-0.7856 0.1364 0.5146 0.5934 0.8943 1.1343 0.8943h0.1374c0.3754 0.1518 0.7767 0.2291 1.1817 0.2278 0.4052 0.0012 0.8068-0.0761 1.1826-0.2278h0.1374c0.5409 0 0.997-0.3792 1.1334-0.8934 0.1594 0.0248 0.3047 0.0642 0.4083 0.128 0.0684 0.0422 0.2278 0.1411 0.2278 0.6562 1e-3 0.9778-0.584 1.7152-1.3833 2.1427z" fill="#8D8D8D"/>
<path d="m16.958 16.319h-3.9183c-0.9792 0 0 1.4053 1.9593 1.4053 1.959-9e-4 2.9396-1.4053 1.959-1.4053z" fill="#8D8D8D"/>
</svg>
