<?xml version="1.0" encoding="UTF-8"?>
<svg fill="none" viewBox="0 0 30 30" xmlns="http://www.w3.org/2000/svg">
<path d="m4.5 8.25c0-0.99456 0.39509-1.9484 1.0984-2.6516s1.6571-1.0984 2.6516-1.0984h12c0.9946 0 1.9484 0.39509 2.6517 1.0984 0.7032 0.70326 1.0983 1.6571 1.0983 2.6516v5.2545c-0.5115 0.0255-1.02 0.141-1.5 0.348v-5.6025c0-0.59674-0.237-1.169-0.659-1.591-0.4219-0.42196-0.9942-0.65901-1.591-0.65901h-12c-0.59674 0-1.169 0.23705-1.591 0.65901s-0.65901 0.99425-0.65901 1.591v12c0 0.1989-0.07902 0.3897-0.21967 0.5303-0.14065 0.1407-0.33142 0.2197-0.53033 0.2197s-0.38968-0.079-0.53033-0.2197c-0.14065-0.1406-0.21967-0.3314-0.21967-0.5303v-12zm2.4255 15.078c-0.609 0.135-1.3245-0.2865-1.875-0.7155-0.2805-0.2175-0.66-0.0015-0.525 0.3285 0.2985 0.7245 0.8805 1.536 2.025 1.68 1.23 0.1515 2.085-0.228 2.9625-0.618 0.59998-0.2655 1.2075-0.5355 1.95-0.6405 0.129-0.018 0.2175 0.135 0.1665 0.255-0.225 0.5355-0.198 1.341 0.4755 1.8675 0.81 0.6315 3.612 0.7665 6.093 3e-3 0.0555-0.0075 0.1125-0.018 0.168-0.0315l2.241-0.561c0.3958-0.0991 0.7572-0.3039 1.0455-0.5925l4.5315-4.53c0.2633-0.2588 0.4726-0.5672 0.6161-0.9074 0.1434-0.3401 0.218-0.7053 0.2196-1.0745s-0.07-0.735-0.2106-1.0763c-0.1405-0.3414-0.3473-0.6515-0.6083-0.9126-0.261-0.261-0.5712-0.4678-0.9126-0.6083-0.3413-0.1406-0.7071-0.2121-1.0763-0.2106-0.3691 0.0016-0.7343 0.0762-1.0745 0.2197-0.3402 0.1434-0.6486 0.3528-0.9074 0.616l-4.53 4.53c-0.2886 0.2883-0.4934 0.6497-0.5925 1.0455l-0.561 2.2425c-0.055 0.217-0.0606 0.4435-0.0165 0.663-1.3755 0.237-2.511 0.177-3.1905 0.0225-0.111-0.0255-0.15-0.165-0.099-0.2655 0.27-0.5235 0.348-1.611-0.606-1.995-1.29-0.519-2.967 0.1875-4.2945 0.7455-0.549 0.231-1.038 0.4365-1.4145 0.5205z" fill="#62CEF9"/>
</svg>
