<svg id="Capa_1" data-name="Capa 1" xmlns="http://www.w3.org/2000/svg" xmlns:xlink="http://www.w3.org/1999/xlink" viewBox="0 0 1320 440"><defs><style>.cls-1,.cls-4{fill:#fff;}.cls-2{fill:none;}.cls-3{mask:url(#mask);}.cls-4{fill-rule:evenodd;}.cls-5{clip-path:url(#clip-path);}</style><mask id="mask" x="0" y="0" width="1320" height="603" maskUnits="userSpaceOnUse"><g id="c"><rect class="cls-1" width="1320" height="440" rx="10"/></g></mask><clipPath id="clip-path"><rect class="cls-2" x="684" y="38" width="124.72" height="22"/></clipPath></defs><title>hero-bg</title><g class="cls-3"><path class="cls-4" d="M581,277a3,3,0,0,1,1.67.51,3,3,0,0,1,1.1,1.34,3,3,0,0,1-3.92,3.92,2.89,2.89,0,0,1-1.34-1.1A3,3,0,0,1,578,280a3,3,0,0,1,3-3Zm0,40a3,3,0,0,1,1.67.51,3,3,0,0,1,1.1,1.34,3,3,0,0,1-3.92,3.92,2.89,2.89,0,0,1-1.34-1.1A3,3,0,0,1,578,320a3,3,0,0,1,3-3Zm0,40a3,3,0,0,1,1.67.51,3,3,0,0,1,1.1,1.34,3,3,0,0,1-3.92,3.92,2.89,2.89,0,0,1-1.34-1.1A3,3,0,0,1,578,360a3,3,0,0,1,3-3Zm0,40a3,3,0,0,1,1.67.51,3,3,0,0,1,1.1,1.34,3,3,0,0,1-3.92,3.92,2.89,2.89,0,0,1-1.34-1.1A3,3,0,0,1,578,400a3,3,0,0,1,3-3Zm0,40a3,3,0,0,1,1.67.51,3,3,0,0,1,1.1,1.34,3,3,0,0,1-3.92,3.92,2.89,2.89,0,0,1-1.34-1.1A3,3,0,0,1,578,440a3,3,0,0,1,3-3Zm0,40a3,3,0,0,1,1.67.51,3,3,0,0,1,1.1,1.34,3,3,0,0,1-3.92,3.92,2.89,2.89,0,0,1-1.34-1.1A3,3,0,0,1,578,480a3,3,0,0,1,3-3Zm0,40a3,3,0,0,1,1.67.51,3,3,0,1,1-4.16,4.16A3,3,0,0,1,578,520a3,3,0,0,1,3-3Zm0,40a3,3,0,0,1,1.67.51,3,3,0,1,1-4.16,4.16A3,3,0,0,1,578,560a3,3,0,0,1,3-3Zm0,40a3,3,0,0,1,1.67.51,3,3,0,1,1-4.16,4.16A3,3,0,0,1,578,600a3,3,0,0,1,3-3Zm25-320a3,3,0,0,1,1.67.51,3,3,0,0,1,1.1,1.34,3,3,0,0,1-3.92,3.92,2.89,2.89,0,0,1-1.34-1.1A3,3,0,0,1,603,280a3,3,0,0,1,3-3Zm0,40a3,3,0,0,1,1.67.51,3,3,0,0,1,1.1,1.34,3,3,0,0,1-3.92,3.92,2.89,2.89,0,0,1-1.34-1.1A3,3,0,0,1,603,320a3,3,0,0,1,3-3Zm0,40a3,3,0,0,1,1.67.51,3,3,0,0,1,1.1,1.34,3,3,0,0,1-3.92,3.92,2.89,2.89,0,0,1-1.34-1.1A3,3,0,0,1,603,360a3,3,0,0,1,3-3Zm0,40a3,3,0,0,1,1.67.51,3,3,0,0,1,1.1,1.34,3,3,0,0,1-3.92,3.92,2.89,2.89,0,0,1-1.34-1.1A3,3,0,0,1,603,400a3,3,0,0,1,3-3Zm0,40a3,3,0,0,1,1.67.51,3,3,0,0,1,1.1,1.34,3,3,0,0,1-3.92,3.92,2.89,2.89,0,0,1-1.34-1.1A3,3,0,0,1,603,440a3,3,0,0,1,3-3Zm0,40a3,3,0,0,1,1.67.51,3,3,0,0,1,1.1,1.34,3,3,0,0,1-3.92,3.92,2.89,2.89,0,0,1-1.34-1.1A3,3,0,0,1,603,480a3,3,0,0,1,3-3Zm0,40a3,3,0,0,1,1.67.51,3,3,0,1,1-4.16,4.16A3,3,0,0,1,603,520a3,3,0,0,1,3-3Zm0,40a3,3,0,0,1,1.67.51,3,3,0,1,1-4.16,4.16A3,3,0,0,1,603,560a3,3,0,0,1,3-3Zm0,40a3,3,0,0,1,1.67.51,3,3,0,1,1-4.16,4.16A3,3,0,0,1,603,600a3,3,0,0,1,3-3Zm25-320a3,3,0,0,1,1.67.51,3,3,0,0,1,1.1,1.34,3,3,0,0,1-3.92,3.92,2.89,2.89,0,0,1-1.34-1.1A3,3,0,0,1,628,280a3,3,0,0,1,3-3Zm0,40a3,3,0,0,1,1.67.51,3,3,0,0,1,1.1,1.34,3,3,0,0,1-3.92,3.92,2.89,2.89,0,0,1-1.34-1.1A3,3,0,0,1,628,320a3,3,0,0,1,3-3Zm0,40a3,3,0,0,1,1.67.51,3,3,0,0,1,1.1,1.34,3,3,0,0,1-3.92,3.92,2.89,2.89,0,0,1-1.34-1.1A3,3,0,0,1,628,360a3,3,0,0,1,3-3Zm0,40a3,3,0,0,1,1.67.51,3,3,0,0,1,1.1,1.34,3,3,0,0,1-3.92,3.92,2.89,2.89,0,0,1-1.34-1.1A3,3,0,0,1,628,400a3,3,0,0,1,3-3Zm0,40a3,3,0,0,1,1.67.51,3,3,0,0,1,1.1,1.34,3,3,0,0,1-3.92,3.92,2.89,2.89,0,0,1-1.34-1.1A3,3,0,0,1,628,440a3,3,0,0,1,3-3Zm0,40a3,3,0,0,1,1.67.51,3,3,0,0,1,1.1,1.34,3,3,0,0,1-3.92,3.92,2.89,2.89,0,0,1-1.34-1.1A3,3,0,0,1,628,480a3,3,0,0,1,3-3Zm0,40a3,3,0,0,1,1.67.51,3,3,0,1,1-4.16,4.16A3,3,0,0,1,628,520a3,3,0,0,1,3-3Zm0,40a3,3,0,0,1,1.67.51,3,3,0,1,1-4.16,4.16A3,3,0,0,1,628,560a3,3,0,0,1,3-3Zm0,40a3,3,0,0,1,1.67.51,3,3,0,1,1-4.16,4.16A3,3,0,0,1,628,600a3,3,0,0,1,3-3Zm25-320a3,3,0,0,1,1.67.51,3,3,0,0,1,1.1,1.34,3,3,0,0,1-3.92,3.92,2.89,2.89,0,0,1-1.34-1.1A3,3,0,0,1,653,280a3,3,0,0,1,3-3Zm0,40a3,3,0,0,1,1.67.51,3,3,0,0,1,1.1,1.34,3,3,0,0,1-3.92,3.92,2.89,2.89,0,0,1-1.34-1.1A3,3,0,0,1,653,320a3,3,0,0,1,3-3Zm0,40a3,3,0,0,1,1.67.51,3,3,0,0,1,1.1,1.34,3,3,0,0,1-3.92,3.92,2.89,2.89,0,0,1-1.34-1.1A3,3,0,0,1,653,360a3,3,0,0,1,3-3Zm0,40a3,3,0,0,1,1.67.51,3,3,0,0,1,1.1,1.34,3,3,0,0,1-3.92,3.92,2.89,2.89,0,0,1-1.34-1.1A3,3,0,0,1,653,400a3,3,0,0,1,3-3Zm0,40a3,3,0,0,1,1.67.51,3,3,0,0,1,1.1,1.34,3,3,0,0,1-3.92,3.92,2.89,2.89,0,0,1-1.34-1.1A3,3,0,0,1,653,440a3,3,0,0,1,3-3Zm0,40a3,3,0,0,1,1.67.51,3,3,0,0,1,1.1,1.34,3,3,0,0,1-3.92,3.92,2.89,2.89,0,0,1-1.34-1.1A3,3,0,0,1,653,480a3,3,0,0,1,3-3Zm0,40a3,3,0,0,1,1.67.51,3,3,0,1,1-4.16,4.16A3,3,0,0,1,653,520a3,3,0,0,1,3-3Zm0,40a3,3,0,0,1,1.67.51,3,3,0,1,1-4.16,4.16A3,3,0,0,1,653,560a3,3,0,0,1,3-3Zm0,40a3,3,0,0,1,1.67.51,3,3,0,1,1-4.16,4.16A3,3,0,0,1,653,600a3,3,0,0,1,3-3Zm25-320a3,3,0,0,1,1.67.51,3,3,0,0,1,1.1,1.34,3,3,0,0,1-3.92,3.92,2.89,2.89,0,0,1-1.34-1.1A3,3,0,0,1,678,280a3,3,0,0,1,3-3Zm0,40a3,3,0,0,1,1.67.51,3,3,0,0,1,1.1,1.34,3,3,0,0,1-3.92,3.92,2.89,2.89,0,0,1-1.34-1.1A3,3,0,0,1,678,320a3,3,0,0,1,3-3Zm0,40a3,3,0,0,1,1.67.51,3,3,0,0,1,1.1,1.34,3,3,0,0,1-3.92,3.92,2.89,2.89,0,0,1-1.34-1.1A3,3,0,0,1,678,360a3,3,0,0,1,3-3Zm0,40a3,3,0,0,1,1.67.51,3,3,0,0,1,1.1,1.34,3,3,0,0,1-3.92,3.92,2.89,2.89,0,0,1-1.34-1.1A3,3,0,0,1,678,400a3,3,0,0,1,3-3Zm0,40a3,3,0,0,1,1.67.51,3,3,0,0,1,1.1,1.34,3,3,0,0,1-3.92,3.92,2.89,2.89,0,0,1-1.34-1.1A3,3,0,0,1,678,440a3,3,0,0,1,3-3Zm0,40a3,3,0,0,1,1.67.51,3,3,0,0,1,1.1,1.34,3,3,0,0,1-3.92,3.92,2.89,2.89,0,0,1-1.34-1.1A3,3,0,0,1,678,480a3,3,0,0,1,3-3Zm0,40a3,3,0,0,1,1.67.51,3,3,0,1,1-4.16,4.16A3,3,0,0,1,678,520a3,3,0,0,1,3-3Zm0,40a3,3,0,0,1,1.67.51,3,3,0,1,1-4.16,4.16A3,3,0,0,1,678,560a3,3,0,0,1,3-3Zm0,40a3,3,0,0,1,1.67.51,3,3,0,1,1-4.16,4.16A3,3,0,0,1,678,600a3,3,0,0,1,3-3Z"/></g><g class="cls-5"><path class="cls-4" d="M792,38l16.72,11L792,60Z"/><path class="cls-4" d="M765,38l16.72,11L765,60Z"/><path class="cls-4" d="M738,38l16.72,11L738,60Z"/><path class="cls-4" d="M711,38l16.72,11L711,60Z"/><path class="cls-4" d="M684,38l16.72,11L684,60Z"/></g></svg>