<svg id="Capa_1" data-name="Capa 1" xmlns="http://www.w3.org/2000/svg" xmlns:xlink="http://www.w3.org/1999/xlink" viewBox="0 0 1320 378"><defs><style>.cls-1,.cls-4,.cls-5{fill:#fff;}.cls-2{fill:none;}.cls-3{mask:url(#mask);}.cls-4{fill-opacity:0.5;}.cls-4,.cls-5{fill-rule:evenodd;}.cls-5{fill-opacity:0.1;}.cls-6{clip-path:url(#clip-path);}</style><mask id="mask" x="0" y="-231" width="1536.73" height="829" maskUnits="userSpaceOnUse"><g id="b"><rect class="cls-1" width="1320" height="378" rx="20"/></g></mask><clipPath id="clip-path"><rect class="cls-2" x="610" y="54" width="124.72" height="22"/></clipPath></defs><title>bg</title><g class="cls-3"><path class="cls-4" d="M534,272a3,3,0,0,1,1.67.51,3,3,0,0,1,1.1,1.34,3,3,0,0,1-3.92,3.92,2.89,2.89,0,0,1-1.34-1.1A3,3,0,0,1,531,275a3,3,0,0,1,3-3Zm0,40a3,3,0,0,1,1.67.51,3,3,0,0,1,1.1,1.34,3,3,0,0,1-3.92,3.92,2.89,2.89,0,0,1-1.34-1.1A3,3,0,0,1,531,315a3,3,0,0,1,3-3Zm0,40a3,3,0,0,1,1.67.51,3,3,0,0,1,1.1,1.34,3,3,0,0,1-3.92,3.92,2.89,2.89,0,0,1-1.34-1.1A3,3,0,0,1,531,355a3,3,0,0,1,3-3Zm0,40a3,3,0,0,1,1.67.51,3,3,0,0,1,1.1,1.34,3,3,0,0,1-3.92,3.92,2.89,2.89,0,0,1-1.34-1.1A3,3,0,0,1,531,395a3,3,0,0,1,3-3Zm0,40a3,3,0,0,1,1.67.51,3,3,0,0,1,1.1,1.34,3,3,0,0,1-3.92,3.92,2.89,2.89,0,0,1-1.34-1.1A3,3,0,0,1,531,435a3,3,0,0,1,3-3Zm0,40a3,3,0,0,1,1.67.51,3,3,0,0,1,1.1,1.34,3,3,0,0,1-3.92,3.92,2.89,2.89,0,0,1-1.34-1.1A3,3,0,0,1,531,475a3,3,0,0,1,3-3Zm0,40a3,3,0,0,1,1.67.51,3,3,0,1,1-4.16,4.16A3,3,0,0,1,531,515a3,3,0,0,1,3-3Zm0,40a3,3,0,0,1,1.67.51,3,3,0,1,1-4.16,4.16A3,3,0,0,1,531,555a3,3,0,0,1,3-3Zm0,40a3,3,0,0,1,1.67.51,3,3,0,1,1-4.16,4.16A3,3,0,0,1,531,595a3,3,0,0,1,3-3Zm25-320a3,3,0,0,1,1.67.51,3,3,0,0,1,1.1,1.34,3,3,0,0,1-3.92,3.92,2.89,2.89,0,0,1-1.34-1.1A3,3,0,0,1,556,275a3,3,0,0,1,3-3Zm0,40a3,3,0,0,1,1.67.51,3,3,0,0,1,1.1,1.34,3,3,0,0,1-3.92,3.92,2.89,2.89,0,0,1-1.34-1.1A3,3,0,0,1,556,315a3,3,0,0,1,3-3Zm0,40a3,3,0,0,1,1.67.51,3,3,0,0,1,1.1,1.34,3,3,0,0,1-3.92,3.92,2.89,2.89,0,0,1-1.34-1.1A3,3,0,0,1,556,355a3,3,0,0,1,3-3Zm0,40a3,3,0,0,1,1.67.51,3,3,0,0,1,1.1,1.34,3,3,0,0,1-3.92,3.92,2.89,2.89,0,0,1-1.34-1.1A3,3,0,0,1,556,395a3,3,0,0,1,3-3Zm0,40a3,3,0,0,1,1.67.51,3,3,0,0,1,1.1,1.34,3,3,0,0,1-3.92,3.92,2.89,2.89,0,0,1-1.34-1.1A3,3,0,0,1,556,435a3,3,0,0,1,3-3Zm0,40a3,3,0,0,1,1.67.51,3,3,0,0,1,1.1,1.34,3,3,0,0,1-3.92,3.92,2.89,2.89,0,0,1-1.34-1.1A3,3,0,0,1,556,475a3,3,0,0,1,3-3Zm0,40a3,3,0,0,1,1.67.51,3,3,0,1,1-4.16,4.16A3,3,0,0,1,556,515a3,3,0,0,1,3-3Zm0,40a3,3,0,0,1,1.67.51,3,3,0,1,1-4.16,4.16A3,3,0,0,1,556,555a3,3,0,0,1,3-3Zm0,40a3,3,0,0,1,1.67.51,3,3,0,1,1-4.16,4.16A3,3,0,0,1,556,595a3,3,0,0,1,3-3Zm25-320a3,3,0,0,1,1.67.51,3,3,0,0,1,1.1,1.34,3,3,0,0,1-3.92,3.92,2.89,2.89,0,0,1-1.34-1.1A3,3,0,0,1,581,275a3,3,0,0,1,3-3Zm0,40a3,3,0,0,1,1.67.51,3,3,0,0,1,1.1,1.34,3,3,0,0,1-3.92,3.92,2.89,2.89,0,0,1-1.34-1.1A3,3,0,0,1,581,315a3,3,0,0,1,3-3Zm0,40a3,3,0,0,1,1.67.51,3,3,0,0,1,1.1,1.34,3,3,0,0,1-3.92,3.92,2.89,2.89,0,0,1-1.34-1.1A3,3,0,0,1,581,355a3,3,0,0,1,3-3Zm0,40a3,3,0,0,1,1.67.51,3,3,0,0,1,1.1,1.34,3,3,0,0,1-3.92,3.92,2.89,2.89,0,0,1-1.34-1.1A3,3,0,0,1,581,395a3,3,0,0,1,3-3Zm0,40a3,3,0,0,1,1.67.51,3,3,0,0,1,1.1,1.34,3,3,0,0,1-3.92,3.92,2.89,2.89,0,0,1-1.34-1.1A3,3,0,0,1,581,435a3,3,0,0,1,3-3Zm0,40a3,3,0,0,1,1.67.51,3,3,0,0,1,1.1,1.34,3,3,0,0,1-3.92,3.92,2.89,2.89,0,0,1-1.34-1.1A3,3,0,0,1,581,475a3,3,0,0,1,3-3Zm0,40a3,3,0,0,1,1.67.51,3,3,0,1,1-4.16,4.16A3,3,0,0,1,581,515a3,3,0,0,1,3-3Zm0,40a3,3,0,0,1,1.67.51,3,3,0,1,1-4.16,4.16A3,3,0,0,1,581,555a3,3,0,0,1,3-3Zm0,40a3,3,0,0,1,1.67.51,3,3,0,1,1-4.16,4.16A3,3,0,0,1,581,595a3,3,0,0,1,3-3Zm25-320a3,3,0,0,1,1.67.51,3,3,0,0,1,1.1,1.34,3,3,0,0,1-3.92,3.92,2.89,2.89,0,0,1-1.34-1.1A3,3,0,0,1,606,275a3,3,0,0,1,3-3Zm0,40a3,3,0,0,1,1.67.51,3,3,0,0,1,1.1,1.34,3,3,0,0,1-3.92,3.92,2.89,2.89,0,0,1-1.34-1.1A3,3,0,0,1,606,315a3,3,0,0,1,3-3Zm0,40a3,3,0,0,1,1.67.51,3,3,0,0,1,1.1,1.34,3,3,0,0,1-3.92,3.92,2.89,2.89,0,0,1-1.34-1.1A3,3,0,0,1,606,355a3,3,0,0,1,3-3Zm0,40a3,3,0,0,1,1.67.51,3,3,0,0,1,1.1,1.34,3,3,0,0,1-3.92,3.92,2.89,2.89,0,0,1-1.34-1.1A3,3,0,0,1,606,395a3,3,0,0,1,3-3Zm0,40a3,3,0,0,1,1.67.51,3,3,0,0,1,1.1,1.34,3,3,0,0,1-3.92,3.92,2.89,2.89,0,0,1-1.34-1.1A3,3,0,0,1,606,435a3,3,0,0,1,3-3Zm0,40a3,3,0,0,1,1.67.51,3,3,0,0,1,1.1,1.34,3,3,0,0,1-3.92,3.92,2.89,2.89,0,0,1-1.34-1.1A3,3,0,0,1,606,475a3,3,0,0,1,3-3Zm0,40a3,3,0,0,1,1.67.51,3,3,0,1,1-4.16,4.16A3,3,0,0,1,606,515a3,3,0,0,1,3-3Zm0,40a3,3,0,0,1,1.67.51,3,3,0,1,1-4.16,4.16A3,3,0,0,1,606,555a3,3,0,0,1,3-3Zm0,40a3,3,0,0,1,1.67.51,3,3,0,1,1-4.16,4.16A3,3,0,0,1,606,595a3,3,0,0,1,3-3Zm25-320a3,3,0,0,1,1.67.51,3,3,0,0,1,1.1,1.34,3,3,0,0,1-3.92,3.92,2.89,2.89,0,0,1-1.34-1.1A3,3,0,0,1,631,275a3,3,0,0,1,3-3Zm0,40a3,3,0,0,1,1.67.51,3,3,0,0,1,1.1,1.34,3,3,0,0,1-3.92,3.92,2.89,2.89,0,0,1-1.34-1.1A3,3,0,0,1,631,315a3,3,0,0,1,3-3Zm0,40a3,3,0,0,1,1.67.51,3,3,0,0,1,1.1,1.34,3,3,0,0,1-3.92,3.92,2.89,2.89,0,0,1-1.34-1.1A3,3,0,0,1,631,355a3,3,0,0,1,3-3Zm0,40a3,3,0,0,1,1.67.51,3,3,0,0,1,1.1,1.34,3,3,0,0,1-3.92,3.92,2.89,2.89,0,0,1-1.34-1.1A3,3,0,0,1,631,395a3,3,0,0,1,3-3Zm0,40a3,3,0,0,1,1.67.51,3,3,0,0,1,1.1,1.34,3,3,0,0,1-3.92,3.92,2.89,2.89,0,0,1-1.34-1.1A3,3,0,0,1,631,435a3,3,0,0,1,3-3Zm0,40a3,3,0,0,1,1.67.51,3,3,0,0,1,1.1,1.34,3,3,0,0,1-3.92,3.92,2.89,2.89,0,0,1-1.34-1.1A3,3,0,0,1,631,475a3,3,0,0,1,3-3Zm0,40a3,3,0,0,1,1.67.51,3,3,0,1,1-4.16,4.16A3,3,0,0,1,631,515a3,3,0,0,1,3-3Zm0,40a3,3,0,0,1,1.67.51,3,3,0,1,1-4.16,4.16A3,3,0,0,1,631,555a3,3,0,0,1,3-3Zm0,40a3,3,0,0,1,1.67.51,3,3,0,1,1-4.16,4.16A3,3,0,0,1,631,595a3,3,0,0,1,3-3Z"/><path class="cls-5" d="M1432.9,368.82c-74,162.56-204.1,246.68-330,202.5S671.7,316,660.42,113.82,855.7-67,997.92-133.68s262.76-139.58,442.5-67.5S1506.84,206.24,1432.9,368.82Z"/></g><rect class="cls-2" x="712" y="18" width="555" height="360"/><g class="cls-6"><path class="cls-4" d="M718,54l16.72,11L718,76Z"/><path class="cls-4" d="M691,54l16.72,11L691,76Z"/><path class="cls-4" d="M664,54l16.72,11L664,76Z"/><path class="cls-4" d="M637,54l16.72,11L637,76Z"/><path class="cls-4" d="M610,54l16.72,11L610,76Z"/></g></svg>