<?xml version="1.0" encoding="UTF-8"?>
<svg fill="none" viewBox="0 0 28 28" xmlns="http://www.w3.org/2000/svg">
<path d="m27.547 14c0.0015-2.2542-0.5596-4.4732-1.6323-6.4558-1.0728-1.9826-2.6234-3.6662-4.5112-4.8981-1.8878-1.2319-4.0532-1.9733-6.3-2.1569-2.2467-0.18362-4.5037 0.19633-6.5665 1.1054-2.0628 0.90908-3.8661 2.3186-5.2466 4.1007-1.3804 1.7821-2.2943 3.8806-2.6589 6.1051-0.36453 2.2246-0.16818 4.505 0.57127 6.6345 0.73945 2.1295 1.9986 4.0408 3.6634 5.5607 0.04566 0.0534 0.09823 0.1004 0.15632 0.14 2.4742 2.1976 5.6686 3.4114 8.9779 3.4113s6.5037-1.214 8.9778-3.4117c0.0576-0.0393 0.1098-0.086 0.1552-0.139 1.391-1.2671 2.5021-2.8107 3.2621-4.532 0.7601-1.7214 1.1522-3.5825 1.1515-5.4641zm-25.5 0c-0.00148-1.951 0.47461-3.8726 1.3867-5.5973 0.9121-1.7246 2.2325-3.1998 3.8459-4.2967 1.6134-1.0969 3.4708-1.7822 5.41-1.9962s3.9013 0.0501 5.715 0.76898 3.4239 1.8708 4.6899 3.3551c1.2661 1.4844 2.1496 3.2561 2.5734 5.1604 0.4238 1.9044 0.375 3.8836-0.1421 5.7648s-1.4868 3.6072-2.8245 5.0274c-1.2525-1.9468-3.124-3.4152-5.3129-4.1684 1.0911-0.7272 1.9194-1.7862 2.3622-3.0204 0.4429-1.2343 0.4769-2.5783 0.097-3.8333-0.38-1.2551-1.1536-2.3546-2.2066-3.136-1.053-0.78144-2.3295-1.2034-3.6408-1.2034s-2.5878 0.42191-3.6408 1.2034c-1.053 0.78145-1.8266 1.881-2.2066 3.136-0.37991 1.255-0.34592 2.599 0.09693 3.8333 0.44286 1.2342 1.2711 2.2932 2.3622 3.0204-2.1889 0.7532-4.0604 2.2216-5.3129 4.1684-2.0905-2.213-3.2542-5.1424-3.252-8.1866zm7.4375-1.0625c0-0.8931 0.26484-1.7662 0.76103-2.5087 0.4962-0.74264 1.2014-1.3214 2.0265-1.6632 0.8252-0.34178 1.7331-0.43121 2.6091-0.25697 0.8759 0.17424 1.6805 0.60431 2.312 1.2358 0.6315 0.63153 1.0616 1.4361 1.2359 2.312 0.1742 0.876 0.0848 1.7839-0.257 2.6091-0.3418 0.8251-0.9206 1.5303-1.6632 2.0265-0.7425 0.4962-1.6156 0.761-2.5087 0.761-1.1972-0.0013-2.345-0.4775-3.1915-1.3241-0.84656-0.8465-1.3228-1.9943-1.3241-3.1915zm-2.9958 10.353c0.78009-1.2948 1.8816-2.3659 3.1977-3.1095 1.316-0.7436 2.802-1.1343 4.3136-1.1343 1.5117 0 2.9976 0.3907 4.3137 1.1343s2.4177 1.8147 3.1977 3.1095c-2.1244 1.7225-4.7764 2.6625-7.5114 2.6625s-5.3869-0.94-7.5114-2.6625z" fill="#8D8D8D"/>
</svg>
