<?xml version="1.0" encoding="UTF-8"?>
<svg fill="none" viewBox="0 0 28 28" xmlns="http://www.w3.org/2000/svg">
<path d="m28 14.001c1e-4 -2.3291-0.5809-4.6215-1.6903-6.6695-1.1094-2.048-2.7122-3.7868-4.6632-5.0589-1.9509-1.2722-4.1884-2.0374-6.5098-2.2266-2.3214-0.18911-4.6532 0.20393-6.7843 1.1435-2.1311 0.93959-3.9942 2.396-5.4204 4.2374-1.4262 1.8414-2.3705 4.0095-2.7474 6.308-0.37688 2.2985-0.17442 4.6547 0.58906 6.8552 0.76348 2.2004 2.0638 4.1757 3.7833 5.7467l0.1647 0.1373c2.5571 2.2712 5.8584 3.5256 9.2784 3.5256s6.7213-1.2544 9.2784-3.5256l0.1647-0.1373c1.4371-1.3107 2.5847-2.9071 3.3694-4.6869s1.1891-3.7038 1.1875-5.649zm-26.353 0c-0.00276-2.0167 0.48826-4.0035 1.4302-5.7868s2.3061-3.3088 3.9733-4.4434c1.6673-1.1346 3.5869-1.8437 5.5914-2.0654 2.0044-0.22172 4.0326 0.05071 5.9075 0.79348s3.5395 1.9333 4.8483 3.4676c1.3089 1.5343 2.2222 3.3658 2.6602 5.3344 0.438 1.9686 0.3875 4.0145-0.1473 5.9591s-1.5375 3.7287-2.9205 5.1964c-1.2971-2.0067-3.2305-3.5197-5.4902-4.2963 1.128-0.7514 1.9843-1.8458 2.4423-3.1214 0.458-1.2757 0.4934-2.6648 0.1009-3.9622-0.3925-1.2973-1.192-2.4339-2.2803-3.2417-1.0882-0.8078-2.4076-1.244-3.7629-1.244s-2.6746 0.43615-3.7629 1.244c-1.0883 0.8078-1.8878 1.9444-2.2803 3.2417-0.39247 1.2974-0.3571 2.6865 0.1009 3.9622 0.458 1.2756 1.3143 2.37 2.4423 3.1214-2.2596 0.7766-4.1931 2.2896-5.4902 4.2963-2.1618-2.2841-3.3654-5.3103-3.3628-8.4554zm7.6863-1.0981c0-0.923 0.27369-1.8253 0.78646-2.5928 0.5128-0.76745 1.2416-1.3656 2.0943-1.7188 0.8528-0.35323 1.7911-0.44565 2.6963-0.26558 0.9053 0.18008 1.7368 0.62456 2.3894 1.2772 0.6527 0.65269 1.0971 1.4843 1.2772 2.3896s0.0876 1.8436-0.2656 2.6964-0.9513 1.5816-1.7187 2.0945c-0.7675 0.5128-1.6697 0.7865-2.5927 0.7865-1.2366-0.0036-2.4214-0.4965-3.2958-1.3709-0.87442-0.8745-1.3672-2.0594-1.3709-3.2961zm-3.102 10.706c0.80735-1.3385 1.9468-2.4457 3.3079-3.2142 1.3611-0.7686 2.8976-1.1725 4.4607-1.1725s3.0996 0.4039 4.4607 1.1725c1.3611 0.7685 2.5006 1.8757 3.3079 3.2142-2.1997 1.7761-4.9415 2.7449-7.7686 2.7449s-5.5689-0.9688-7.7686-2.7449z" fill="#585CE5"/>
</svg>
