<?xml version="1.0" encoding="UTF-8"?>
<svg fill="none" viewBox="0 0 30 30" xmlns="http://www.w3.org/2000/svg">
<path d="m16.175 15l6.9084-6.9083c0.1365-0.15942 0.2078-0.36448 0.1997-0.57421s-0.095-0.40868-0.2434-0.55709c-0.1485-0.14842-0.3474-0.23536-0.5571-0.24346-0.2098-0.0081-0.4148 0.06324-0.5742 0.19976l-6.9084 6.9083-6.9083-6.9166c-0.15692-0.15692-0.36975-0.24508-0.59167-0.24508s-0.43475 0.08816-0.59167 0.24508-0.24507 0.36974-0.24507 0.59166 0.08815 0.43475 0.24507 0.59167l6.9166 6.9083-6.9166 6.9083c-0.08723 0.0748-0.15808 0.1667-0.2081 0.2701s-0.07813 0.216-0.08256 0.3307c-0.00444 0.1148 0.0149 0.2292 0.0568 0.3362 0.04189 0.1069 0.10544 0.204 0.18665 0.2853 0.08122 0.0812 0.17834 0.1447 0.28528 0.1866 0.10693 0.0419 0.22138 0.0612 0.33614 0.0568 0.11477-0.0044 0.22738-0.0325 0.33077-0.0825 0.10338-0.0501 0.19532-0.1209 0.27002-0.2082l6.9166-6.9083 6.9084 6.9083c0.1594 0.1366 0.3644 0.2079 0.5742 0.1998 0.2097-0.0081 0.4086-0.095 0.5571-0.2435 0.1484-0.1484 0.2353-0.3473 0.2434-0.557 0.0081-0.2098-0.0632-0.4148-0.1997-0.5743l-6.9084-6.9083z" fill="#212121"/>
</svg>
