<?xml version="1.0" encoding="UTF-8"?>
<svg viewBox="0 0 30 30" xmlns="http://www.w3.org/2000/svg">
<path d="m12.188 4.6875h15.469v1.875h-15.469v-1.875z" fill="#4AC989"/>
<path d="m2.3438 5.625c0 0.74168 0.21993 1.4667 0.63199 2.0834 0.41205 0.61668 0.99772 1.0973 1.683 1.3812 0.68522 0.28383 1.4392 0.35809 2.1666 0.2134 0.72743-0.1447 1.3956-0.50185 1.9201-1.0263s0.8816-1.1926 1.0263-1.9201c0.14469-0.72743 0.07043-1.4814-0.2134-2.1666-0.28383-0.68523-0.76448-1.2709-1.3812-1.683-0.61669-0.41206-1.3417-0.63199-2.0834-0.63199-0.99422 0.00112-1.9474 0.39656-2.6504 1.0996s-1.0985 1.6562-1.0996 2.6504zm3.75-1.875c0.37084 0 0.73335 0.10997 1.0417 0.31599 0.30835 0.20603 0.54867 0.49887 0.69058 0.84148 0.14192 0.34261 0.17905 0.71961 0.1067 1.0833-0.07234 0.36372-0.25092 0.69781-0.51314 0.96004-0.26223 0.26222-0.59632 0.4408-0.96004 0.51314-0.36371 0.07235-0.74071 0.03522-1.0833-0.1067-0.34261-0.14191-0.63545-0.38223-0.84148-0.69058-0.20602-0.30834-0.31599-0.67085-0.31599-1.0417 5.6e-4 -0.49711 0.19828-0.9737 0.54979-1.3252s0.8281-0.54923 1.3252-0.54979z" fill="#4AC989"/>
<path d="m12.188 14.062h15.469v1.875h-15.469v-1.875z" fill="#4AC989"/>
<path d="m6.0938 18.75c0.74168 0 1.4667-0.2199 2.0834-0.632 0.61668-0.412 1.0973-0.9977 1.3812-1.6829 0.28383-0.6853 0.35809-1.4393 0.2134-2.1667-0.1447-0.7274-0.50185-1.3956-1.0263-1.92-0.52445-0.5245-1.1926-0.8816-1.9201-1.0263s-1.4814-0.0705-2.1666 0.2134c-0.68523 0.2838-1.2709 0.7644-1.683 1.3811-0.41206 0.6167-0.63199 1.3417-0.63199 2.0834 0.00112 0.9942 0.39656 1.9474 1.0996 2.6504s1.6562 1.0985 2.6504 1.0996zm0-5.625c0.37084 0 0.73335 0.11 1.0417 0.316 0.30835 0.206 0.54867 0.4989 0.69058 0.8415 0.14192 0.3426 0.17905 0.7196 0.1067 1.0833-0.07234 0.3637-0.25092 0.6978-0.51314 0.96-0.26223 0.2623-0.59632 0.4408-0.96004 0.5132-0.36371 0.0723-0.74071 0.0352-1.0833-0.1067s-0.63545-0.3823-0.84148-0.6906c-0.20602-0.3083-0.31599-0.6709-0.31599-1.0417 5.6e-4 -0.4971 0.19828-0.9737 0.54979-1.3252s0.8281-0.5492 1.3252-0.5498z" fill="#4AC989"/>
<path d="m12.188 23.438h15.469v1.875h-15.469v-1.875z" fill="#4AC989"/>
<path d="m6.0938 28.125c0.74168 0 1.4667-0.2199 2.0834-0.632 0.61668-0.412 1.0973-0.9977 1.3812-1.6829 0.28383-0.6853 0.35809-1.4393 0.2134-2.1667-0.1447-0.7274-0.50185-1.3956-1.0263-1.92-0.52445-0.5245-1.1926-0.8816-1.9201-1.0263s-1.4814-0.0705-2.1666 0.2134c-0.68523 0.2838-1.2709 0.7644-1.683 1.3811-0.41206 0.6167-0.63199 1.3417-0.63199 2.0834 0.00112 0.9942 0.39656 1.9474 1.0996 2.6504s1.6562 1.0985 2.6504 1.0996zm0-5.625c0.37084 0 0.73335 0.11 1.0417 0.316 0.30835 0.206 0.54867 0.4989 0.69058 0.8415 0.14192 0.3426 0.17905 0.7196 0.1067 1.0833-0.07234 0.3637-0.25092 0.6978-0.51314 0.96-0.26223 0.2623-0.59632 0.4408-0.96004 0.5132-0.36371 0.0723-0.74071 0.0352-1.0833-0.1067s-0.63545-0.3823-0.84148-0.6906c-0.20602-0.3083-0.31599-0.6709-0.31599-1.0417 5.6e-4 -0.4971 0.19828-0.9737 0.54979-1.3252s0.8281-0.5492 1.3252-0.5498z" fill="#4AC989"/>
</svg>
