<?xml version="1.0" encoding="UTF-8"?>
<svg viewBox="0 0 30 30" xmlns="http://www.w3.org/2000/svg">
<path d="m24.925 11.721c-0.6925-1.6263-1.7736-3.0578-3.1485-4.1688s-3.0014-1.8675-4.7369-2.203l1.5677-2.5083-1.59-0.99375-2.0686 3.3098c-2.1072 0.00978-4.1653 0.63668-5.9202 1.8032-1.7548 1.1666-3.1294 2.8217-3.9539 4.7608-1.1045 0.021-2.1566 0.4745-2.9302 1.263s-1.2071 1.8491-1.2071 2.9537c0 1.1047 0.43341 2.1652 1.2071 2.9537s1.8258 1.242 2.9302 1.263c0.82805 1.9472 2.2105 3.6077 3.9753 4.775 1.7648 1.1672 3.834 1.7896 5.9498 1.7896s4.185-0.6224 5.9499-1.7896c1.7648-1.1673 3.1472-2.8278 3.9753-4.775 1.1045-0.021 2.1566-0.4745 2.9302-1.263 0.7737-0.7885 1.2071-1.849 1.2071-2.9537 0-1.1046-0.4334-2.1652-1.2071-2.9537-0.7736-0.7885-1.8257-1.242-2.9302-1.263zm1.5909 5.8579c-0.4288 0.4386-1.0132 0.6904-1.6265 0.7009l-1.2144 0.0231-0.4754 1.1176c-0.6839 1.6088-1.826 2.9808-3.2841 3.9452-1.458 0.9645-3.1675 1.4787-4.9157 1.4787-1.7481 0-3.4576-0.5142-4.9157-1.4787-1.458-0.9644-2.6001-2.3364-3.2841-3.9452l-0.47543-1.1176-1.2144-0.0231c-0.61356-0.0115-1.1981-0.2633-1.628-0.7013s-0.67066-1.0271-0.67066-1.6408 0.24081-1.2028 0.67066-1.6408 1.0144-0.6898 1.628-0.7012l1.2144-0.0231 0.47543-1.1176c0.68399-1.6088 1.8261-2.9808 3.2842-3.9453 1.458-0.96443 3.1675-1.4787 4.9156-1.4787 1.7482 0 3.4577 0.51423 4.9157 1.4787s2.6002 2.3365 3.2841 3.9453l0.4754 1.1176 1.2144 0.0231c0.4576 0.0086 0.9027 0.1512 1.2802 0.41s0.6709 0.6226 0.8439 1.0463 0.2181 0.8889 0.1297 1.338-0.3065 0.8624-0.6273 1.1889z" fill="#FF7070"/>
<path d="m9.8438 13.594h2.3438v2.3437h-2.3438v-2.3437z" fill="#FF7070"/>
<path d="m17.812 13.594h2.3437v2.3437h-2.3437v-2.3437z" fill="#FF7070"/>
<path d="m15 22.5c0.6156 0 1.2251-0.1212 1.7938-0.3568s1.0855-0.5809 1.5208-1.0161c0.4352-0.4353 0.7805-0.9521 1.0161-1.5208s0.3568-1.1782 0.3568-1.7938h-9.375c0 0.6156 0.1212 1.2251 0.3568 1.7938s0.5809 1.0855 1.0161 1.5208c0.8791 0.879 2.0714 1.3729 3.3146 1.3729z" fill="#FF7070"/>
</svg>
