<?xml version="1.0" encoding="UTF-8"?>
<svg viewBox="0 0 30 30" xmlns="http://www.w3.org/2000/svg">
<path d="m9.375 5.6273v1.875h17.812v3.7116l-2.0801 6.6009h-16.322l-2.3438-16.877h-5.5038v1.875h3.8712l2.3438 16.877h19.33l2.58-8.1875v-5.875h-19.688z" fill="#ECAC4A"/>
<path d="m10.37 21.583c-0.99424 0.0011-1.9474 0.3965-2.6504 1.0996-0.70302 0.703-1.0985 1.6561-1.0996 2.6504 0 0.9945 0.39509 1.9483 1.0984 2.6516s1.6571 1.0984 2.6517 1.0984c0.9945 0 1.9484-0.3951 2.6516-1.0984 0.7033-0.7033 1.0984-1.6571 1.0984-2.6516-0.0011-0.9943-0.3966-1.9474-1.0996-2.6505-0.703-0.703-1.6562-1.0984-2.6504-1.0995zm0 5.625c-0.37087 0-0.73338-0.11-1.0417-0.316-0.30834-0.2061-0.54866-0.4989-0.69058-0.8415-0.14191-0.3426-0.17904-0.7196-0.1067-1.0833 0.07235-0.3638 0.25093-0.6978 0.51315-0.9601 0.26222-0.2622 0.59632-0.4408 0.96005-0.5131 0.3637-0.0724 0.7407-0.0352 1.0833 0.1067s0.6355 0.3822 0.8415 0.6906c0.206 0.3083 0.316 0.6708 0.316 1.0417-6e-4 0.4971-0.1983 0.9736-0.5499 1.3251-0.3515 0.3515-0.828 0.5493-1.3251 0.5499z" fill="#ECAC4A"/>
<path d="m23.495 21.583c-0.9942 0.0011-1.9474 0.3965-2.6504 1.0996-0.703 0.703-1.0985 1.6561-1.0996 2.6504 0 0.9945 0.3951 1.9483 1.0983 2.6516 0.7033 0.7033 1.6571 1.0984 2.6517 1.0984 0.9945 0 1.9484-0.3951 2.6516-1.0984 0.7033-0.7033 1.0984-1.6571 1.0984-2.6516-0.0011-0.9943-0.3966-1.9474-1.0996-2.6505-0.703-0.703-1.6562-1.0984-2.6504-1.0995zm0 5.625c-0.3709 0-0.7334-0.11-1.0417-0.316-0.3084-0.2061-0.5487-0.4989-0.6906-0.8415s-0.179-0.7196-0.1067-1.0833c0.0724-0.3638 0.2509-0.6978 0.5132-0.9601 0.2622-0.2622 0.5963-0.4408 0.96-0.5131 0.3637-0.0724 0.7407-0.0352 1.0833 0.1067s0.6355 0.3822 0.8415 0.6906c0.206 0.3083 0.316 0.6708 0.316 1.0417-6e-4 0.4971-0.1983 0.9736-0.5498 1.3251-0.3516 0.3515-0.8281 0.5493-1.3252 0.5499z" fill="#ECAC4A"/>
</svg>
