<?xml version="1.0" encoding="UTF-8"?>
<svg fill="none" viewBox="0 0 30 30" xmlns="http://www.w3.org/2000/svg">
<path d="m14.375 26.25h-8.75c-0.33152 0-0.64946-0.1317-0.88388-0.3661s-0.36612-0.5524-0.36612-0.8839v-20c0-0.33152 0.1317-0.64946 0.36612-0.88388s0.55236-0.36612 0.88388-0.36612h17.5c0.3315 0 0.6495 0.1317 0.8839 0.36612s0.3661 0.55236 0.3661 0.88388v7.1875" stroke="#FB80BA" stroke-linecap="round" stroke-linejoin="round" stroke-width="2"/>
<path d="m22.898 16.875c1.5063 0 2.7275 1.175 2.7275 2.625 0 1.8875-1.8187 3.5-2.7275 4.375-0.6062 0.5831-1.3631 1.1669-2.2725 1.75-0.9087-0.5831-1.6669-1.1669-2.2725-1.75-0.9094-0.875-2.7275-2.4875-2.7275-4.375 0-1.45 1.2213-2.625 2.7275-2.625 0.9481 0 1.7838 0.4663 2.2725 1.1738 0.2556-0.3649 0.5959-0.6623 0.9917-0.8668 0.3958-0.2044 0.8353-0.3098 1.2808-0.307z" stroke="#FB80BA" stroke-linejoin="round" stroke-width="2"/>
<path d="m9.375 8.75h10" stroke="#FB80BA" stroke-linecap="round" stroke-width="2"/>
</svg>
