<?xml version="1.0" encoding="UTF-8"?>
<svg fill="none" viewBox="0 0 30 30" xmlns="http://www.w3.org/2000/svg">
<path d="m26.078 20.223l1.1099-4.1622v-2.4667c-0.4767-5.5074-5.1523-9.8438-10.781-9.8438h-1.875v9.8438h-6.7876l-1.0455-4.6154c-0.09214-0.41793-0.32382-0.79204-0.6569-1.0608-0.33308-0.26872-0.74772-0.41603-1.1757-0.41769h-3.928v1.875h3.928l2.3716 10.469c-0.84628 0.2242-1.6129 0.681-2.2129 1.3185-0.60005 0.6375-1.0096 1.4302-1.1822 2.2885s-0.10141 1.7478 0.20554 2.5677c0.30694 0.8199 0.83737 1.5375 1.5312 2.0714s1.5233 0.8629 2.3944 0.9496c0.87117 0.0867 1.7492-0.0723 2.5346-0.459 0.7855-0.3866 1.447-0.9855 1.9095-1.7288 0.4626-0.7433 0.7077-1.6013 0.7077-2.4768 0-0.1582-0.0078-0.3145-0.0234-0.4688h6.1406c-0.0154 0.1543-0.0233 0.3105-0.0234 0.4688-4e-4 0.8313 0.2203 1.6477 0.6394 2.3655 0.4192 0.7179 1.0217 1.3113 1.7457 1.7196 0.7241 0.4083 1.5437 0.6167 2.3749 0.6038 0.8312-0.0128 1.6439-0.2465 2.355-0.677s1.295-1.0423 1.6917-1.7728 0.592-1.5533 0.5659-2.3842c-0.026-0.8308-0.2726-1.6398-0.7143-2.344-0.4418-0.7041-1.0628-1.2782-1.7995-1.6632zm-9.6714-14.598c4.5944 0 8.3875 3.4968 8.8573 7.9688h-8.8573v-7.9688zm-7.9687 21.562c-0.55626 0-1.1-0.1649-1.5625-0.474-0.46251-0.309-0.823-0.7483-1.0359-1.2622s-0.26857-1.0794-0.16005-1.625 0.37639-1.0467 0.76972-1.44c0.39334-0.3934 0.89448-0.6612 1.44-0.7698 0.54557-0.1085 1.1111-0.0528 1.625 0.1601 0.5139 0.2129 0.9532 0.5733 1.2622 1.0359 0.309 0.4625 0.474 1.0062 0.474 1.5625-9e-4 0.7457-0.2974 1.4605-0.8247 1.9878-0.52727 0.5273-1.2421 0.8238-1.9878 0.8247zm11.412-5.1563h-7.355c-0.3524-0.6091-0.8372-1.1312-1.4185-1.5279-0.5812-0.3966-1.2442-0.6575-1.9399-0.7635l-0.96756-4.271h17.144v0.3457l-1.0371 3.8887c-0.1228-0.0101-0.2459-0.0154-0.3692-0.0159-0.8223 7e-4 -1.6301 0.2176-2.3421 0.629-0.7121 0.4114-1.3034 1.0028-1.7147 1.7149zm4.0568 5.1563c-0.5562 0-1.1-0.1649-1.5625-0.474-0.4625-0.309-0.823-0.7483-1.0359-1.2622-0.2128-0.5139-0.2685-1.0794-0.16-1.625s0.3764-1.0467 0.7697-1.44c0.3933-0.3934 0.8945-0.6612 1.4401-0.7698 0.5455-0.1085 1.111-0.0528 1.6249 0.1601 0.514 0.2129 0.9532 0.5733 1.2623 1.0359 0.309 0.4625 0.474 1.0062 0.474 1.5625-9e-4 0.7457-0.2975 1.4605-0.8248 1.9878-0.5272 0.5273-1.2421 0.8238-1.9878 0.8247z" fill="#62CEF9"/>
</svg>
