<svg id="Capa_1" data-name="Capa 1" xmlns="http://www.w3.org/2000/svg" xmlns:xlink="http://www.w3.org/1999/xlink" viewBox="0 0 1920 488"><defs><style>.cls-1{fill:#fff;}.cls-2{fill:#f2f6fe;}.cls-3{mask:url(#mask);}.cls-4{fill:#62cef9;fill-opacity:0.25;fill-rule:evenodd;}</style><mask id="mask" x="-93.04" y="0" width="2112.86" height="596.43" maskUnits="userSpaceOnUse"><g id="a"><rect class="cls-1" width="1920" height="488"/></g></mask></defs><title>bg</title><rect class="cls-2" width="1920.41" height="488"/><g class="cls-3"><path class="cls-4" d="M1976.8,105.88c-22.84-18.46-57.48-28-79-25.5s-53,13.7-68.5,43-6.26,53.49,3,64,34.15,18.06,47.5,23.5,26.35,19.56,28.5,31.5-7.08,23.36-12.91,36.22c-6,13.1-6.55,46.93,22.43,60.78s51.39-4.54,59-20,3.35-37.83,3-43-.17-15.55,14-29.5,25.61-30.46,26-61S1999.63,124.34,1976.8,105.88Zm-118,55.5c-5.09,3.83-15.76,7.76-21,0s4.61-17.09,9-20,10-5.12,16,1.5S1863.88,157.55,1858.8,161.38Z"/><path class="cls-4" d="M-66.31,430.66c31-44.5,87.09-51.73,113.09-45s76.66,38.8,74.05,80-27.55,51.16-44,57-46.48,1.78-63,14-26.27,43.12-38,52-24.56,11.29-40,1-24.18-38-27-56-6-58.5,25-103Z"/></g></svg>