<svg id="Capa_1" data-name="Capa 1" xmlns="http://www.w3.org/2000/svg" viewBox="0 0 95 211"><defs><style>.cls-1{fill:#62cef9;fill-opacity:0.25;fill-rule:evenodd;}</style></defs><path class="cls-1" d="M124.23,20.94C106,6.2,78.34-1.42,61.16.58S18.85,11.51,6.47,34.91s-5,42.7,2.4,51.1,27.26,14.41,37.92,18.76,21.05,15.61,22.75,25.15-5.65,18.65-10.3,28.91c-4.79,10.46-5.23,37.47,17.9,48.53s41-3.62,47.11-16,2.67-30.2,2.39-34.33-.13-12.41,11.19-23.55,20.44-24.32,20.76-48.7-16.12-49.14-34.35-63.87ZM30,65.25c-4.06,3-12.58,6.19-16.76,0s3.68-13.65,7.18-16,8-4.09,12.78,1.2.86,11.71-3.2,14.77Z"/></svg>