<?xml version="1.0" encoding="UTF-8"?>
<svg viewBox="0 0 30 30" xmlns="http://www.w3.org/2000/svg">
<path d="m27.102 18.533l-3.7701-2.4668 1.4516-2.6612c0.3501-0.6645 0.5335-1.4041 0.5344-2.1552v-4.2188c3e-3 -1.1862-0.3406-2.3475-0.9885-3.3412-0.6478-0.99369-1.5718-1.7766-2.6583-2.2525-1.0866-0.47591-2.2885-0.62415-3.4582-0.42651-1.1696 0.19765-2.2561 0.73256-3.1259 1.5391l1.2743 1.3756c0.6027-0.5573 1.355-0.92662 2.1645-1.0627 0.8096-0.13604 1.6413-0.03289 2.3931 0.29679s1.391 0.87157 1.8394 1.5592c0.4483 0.68765 0.6863 1.4912 0.6846 2.3121v4.2188c-1e-4 0.4374-0.1049 0.8683-0.3055 1.257l-2.2803 4.1805 5.2183 3.4145c0.3444 0.2254 0.6271 0.5334 0.8223 0.8958 0.1952 0.3625 0.2966 0.768 0.2952 1.1796v3.1351h-4.2187v1.875h6.0937v-5.0101c0.0019-0.7231-0.1769-1.4353-0.5203-2.0717-0.3433-0.6364-0.8402-1.177-1.4456-1.5725z" fill="#4D4D4D"/>
<path d="m18.664 20.408l-3.7701-2.4668 1.4516-2.6612c0.3501-0.6645 0.5335-1.4041 0.5344-2.1552v-4.2187c-0.0012-1.617-0.6437-3.1676-1.7867-4.3115-1.143-1.1439-2.6931-1.7877-4.3101-1.7901-3.3584 0-6.0906 2.7372-6.0906 6.1016v4.2187c-0.00358 0.7508 0.17784 1.4908 0.52822 2.1548l1.4594 2.6756-3.7482 2.4528c-0.60468 0.3949-1.1012 0.9346-1.4444 1.57s-0.52241 1.3465-0.5212 2.0687l-0.029297 5.0156h19.693v-5.0101c0.0019-0.7231-0.1769-1.4352-0.5202-2.0717-0.3434-0.6364-0.8403-1.1769-1.4457-1.5725zm0.0909 6.7793h-15.932l0.01816-3.1351c-0.00141-0.4116 0.10008-0.8171 0.29525-1.1796 0.19518-0.3625 0.47784-0.6704 0.82231-0.8958l5.1962-3.4002-2.2881-4.1948c-0.19836-0.3892-0.30095-0.8201-0.29924-1.257v-4.2187c0-1.1189 0.44447-2.1919 1.2356-2.9831s1.8642-1.2356 2.9831-1.2356c1.1189 0 2.1919 0.44447 2.9831 1.2356s1.2356 1.8642 1.2356 2.9831v4.2187c-1e-4 0.4374-0.1049 0.8684-0.3055 1.257l-2.2803 4.1805 5.2183 3.4145c0.3444 0.2255 0.6271 0.5334 0.8223 0.8959 0.1952 0.3624 0.2967 0.7679 0.2952 1.1796v3.135z" fill="#4D4D4D"/>
</svg>
