<?xml version="1.0" encoding="UTF-8"?>
<svg viewBox="0 0 24 24" xmlns="http://www.w3.org/2000/svg">
<path d="m21.682 14.826l-3.0161-1.9734 1.1613-2.129c0.2801-0.5316 0.4268-1.1233 0.4276-1.7242v-3.375c0.0023-0.94898-0.2726-1.878-0.7908-2.6729-0.5183-0.79495-1.2575-1.4212-2.1267-1.802-0.8693-0.38073-1.8308-0.49932-2.7665-0.3412-0.9357 0.15811-1.8049 0.58604-2.5008 1.2313l1.0194 1.1005c0.4822-0.44584 1.084-0.74129 1.7317-0.85012 0.6476-0.10884 1.313-0.02632 1.9144 0.23742 0.6014 0.26375 1.1128 0.69726 1.4715 1.2474 0.3587 0.55012 0.5491 1.193 0.5478 1.8497v3.375c-2e-4 0.34988-0.084 0.69465-0.2445 1.0056l-1.8242 3.3444 4.1746 2.7316c0.2756 0.1804 0.5017 0.4267 0.6579 0.7167 0.1561 0.29 0.2373 0.6144 0.2362 0.9437v2.508h-3.375v1.5h4.875v-4.0081c0.0015-0.5785-0.1416-1.1482-0.4163-1.6573-0.2746-0.5092-0.6722-0.9416-1.1565-1.258z" fill="#585CE5"/>
<path d="m14.932 16.326l-3.0161-1.9734 1.1613-2.129c0.2801-0.5316 0.4268-1.1233 0.4276-1.7242v-3.375c-1e-3 -1.2936-0.5151-2.5341-1.4295-3.4492-0.9143-0.9151-2.1544-1.4301-3.448-1.4321-2.6867 0-4.8725 2.1898-4.8725 4.8813v3.375c-0.00286 0.6006 0.14227 1.1927 0.42258 1.7239l1.1676 2.1405-2.9986 1.9622c-0.48374 0.3159-0.88094 0.7476-1.1556 1.256-0.27461 0.5083-0.41793 1.0772-0.41696 1.6549l-0.023438 4.0125h15.754v-4.0081c0.0015-0.5785-0.1416-1.1482-0.4163-1.6573-0.2746-0.5092-0.6722-0.9416-1.1565-1.258zm0.0728 5.4234h-12.746l0.01453-2.5081c-0.00113-0.3293 0.08006-0.6537 0.2362-0.9437 0.15614-0.2899 0.38227-0.5363 0.65785-0.7166l4.157-2.7201-1.8305-3.3559c-0.15869-0.3114-0.24076-0.6561-0.23939-1.0056v-3.375c0-0.8951 0.35558-1.7536 0.98851-2.3865 0.63294-0.63294 1.4914-0.98852 2.3865-0.98852s1.7535 0.35558 2.3864 0.98852c0.633 0.63293 0.9886 1.4914 0.9886 2.3865v3.375c-2e-4 0.3499-0.084 0.6947-0.2445 1.0056l-1.8242 3.3444 4.1746 2.7316c0.2756 0.1804 0.5017 0.4267 0.6578 0.7167 0.1562 0.29 0.2374 0.6144 0.2363 0.9437v2.508z" fill="#585CE5"/>
</svg>
