<svg id="Capa_1" data-name="Capa 1" xmlns="http://www.w3.org/2000/svg" xmlns:xlink="http://www.w3.org/1999/xlink" viewBox="0 0 1920 869"><defs><style>.cls-1{fill:#fff;}.cls-2{mask:url(#mask);}.cls-3{fill:#a28eec;fill-opacity:0.15;fill-rule:evenodd;}</style><mask id="mask" x="-70.4" y="80" width="2070.5" height="789" maskUnits="userSpaceOnUse"><g id="a"><rect class="cls-1" y="80" width="1920" height="789"/></g></mask></defs><title>bg</title><g class="cls-2"><path class="cls-3" d="M1940.6,776.57c-4.68-10.24-12.07-19.35-10.34-28.92s12.12-20.81,22.79-25.15,30.59-10.38,38-18.76,14.81-27.71,2.4-51.1-37.6-32.37-54.8-34.33-44.92,5.59-63.2,20.36-34.69,39.49-34.4,63.87,9.47,37.57,20.8,48.7,11.48,19.42,11.2,23.56-3.68,22,2.4,34.33,24,27,47.2,16,22.74-38,17.95-48.53Z"/><path class="cls-3" d="M69.38,209.32c7.61,42.73-20,78.53-38.52,89.44s-65.31,21.42-87.14-3.37-13.36-44.53-7.34-57.17,25.28-27.3,27.74-43.59-9.54-39.25-7.9-50.93,7.5-20.28,22.07-23.2,35.15,7.79,47,16.4S61.75,166.59,69.38,209.32Z"/></g></svg>