<svg id="Capa_1" data-name="Capa 1" xmlns="http://www.w3.org/2000/svg" viewBox="0 0 800 449"><defs><style>.cls-1{fill:#ffe082;fill-rule:evenodd;}</style></defs><title>login-bg</title><path class="cls-1" d="M54.37,390l-11.5,6.05L30,394.3l6,11.5-1.75,12.87,11.5-6.05,12.88,1.75-6.05-11.5L54.37,390Zm-4.84,7.37,2.12,12.06-12.06,2.13-2.13-12.07Z"/><path class="cls-1" d="M89,380l-3.4,6.6L79,390l6.6,3.4L89,400l3.4-6.6L99,390l-6.6-3.4Zm.15,5L94.1,390l-4.95,4.95-5-4.95Z"/><path class="cls-1" d="M745.6,60l11.5-6L770,55.7l-6.05-11.5,1.75-12.87-11.5,6.05L741.3,35.63l6.05,11.5L745.6,60Zm4.84-7.37-2.13-12.06,12.07-2.13,2.13,12.07Z"/><path class="cls-1" d="M711,70l3.4-6.6L721,60l-6.6-3.4L711,50l-3.4,6.6L701,60l6.6,3.4Zm-.15-5-5-4.95,5-4.95L715.8,60Z"/></svg>