<svg id="Capa_1" data-name="Capa 1" xmlns="http://www.w3.org/2000/svg" viewBox="0 0 800 580.5"><defs><style>.cls-1{fill:#ffe082;fill-rule:evenodd;}.cls-2{fill:#ffa1ac;}.cls-3{fill:none;stroke:#000;stroke-linejoin:round;stroke-width:2px;}</style></defs><title>register-bg</title><path class="cls-1" d="M54.37,512l-11.5,6L30,516.3l6,11.5-1.75,12.87,11.5-6,12.88,1.75-6.05-11.5L54.37,512Zm-4.84,7.37,2.12,12.06-12.06,2.13-2.13-12.07Z"/><path class="cls-1" d="M89,502l-3.4,6.6L79,512l6.6,3.4L89,522l3.4-6.6L99,512l-6.6-3.4Zm.15,5L94.1,512l-4.95,5-5-5Z"/><path class="cls-1" d="M755,91.23l2.87,6.85-1.64,7.24,6.85-2.87,7.24,1.63-2.87-6.84L769.09,90l-6.85,2.87L755,91.23Zm4,3.12,7-.61.61,7-7,.61Z"/><path class="cls-1" d="M708.4,33l-4.92,2.59L698,34.84l2.59,4.93-.75,5.52,4.93-2.6,5.52.75-2.6-4.92Zm-2.07,3.16.91,5.17-5.17.91-.91-5.17Z"/><path class="cls-2" d="M759.7,52.85A4.53,4.53,0,0,0,752,48.57a4.55,4.55,0,0,0-.79-1.68,4.5,4.5,0,0,0-1.41-1.23,4.52,4.52,0,0,0-3.64-.33,4.38,4.38,0,0,0-1.61,1,4.61,4.61,0,0,0-1.09,1.52,4.53,4.53,0,0,0-.38,1.82,4.46,4.46,0,0,0,.39,1.83l4.83,10.92,9.65-7h0a4.51,4.51,0,0,0,1.71-2.48Z"/><path class="cls-3" d="M759.7,52.85a4.52,4.52,0,0,0-2.16-5.12,4.54,4.54,0,0,0-2.89-.52,4.47,4.47,0,0,0-2.6,1.37,4.39,4.39,0,0,0-.8-1.69,4.59,4.59,0,0,0-1.4-1.23,4.52,4.52,0,0,0-3.64-.33,4.52,4.52,0,0,0-1.61,1,4.61,4.61,0,0,0-1.09,1.52,4.53,4.53,0,0,0-.38,1.82,4.46,4.46,0,0,0,.39,1.83h0l4.83,10.92,9.65-7h0a4.44,4.44,0,0,0,1.7-2.48Z"/><path class="cls-2" d="M738.6,65.27a8.51,8.51,0,0,0-16.5.24,8.51,8.51,0,1,0-11.21,12.71h0l18.17,13.25,9.1-20.56h0a8.43,8.43,0,0,0,.44-5.64Z"/><path class="cls-3" d="M738.6,65.27a8.51,8.51,0,0,0-16.5.23,8.51,8.51,0,0,0-14.41,8,8.46,8.46,0,0,0,3.2,4.67h0l18.17,13.25,9.1-20.56h0a8.42,8.42,0,0,0,.44-5.64Z"/></svg>