<svg id="Capa_1" data-name="Capa 1" xmlns="http://www.w3.org/2000/svg" viewBox="0 0 799.5 643.5"><defs><style>.cls-1{fill:#ffe082;fill-rule:evenodd;}</style></defs><title>register-bg-02</title><path class="cls-1" d="M663.6,57.67l11.5-6.05L688,53.37l-6.05-11.5L683.67,29l-11.5,6L659.3,33.3l6.05,11.5L663.6,57.67Zm4.84-7.37-2.13-12.06,12.07-2.13,2.13,12.07Z"/><path class="cls-1" d="M659,122.67l3.4-6.6,6.6-3.4-6.6-3.4-3.4-6.6-3.4,6.6-6.6,3.4,6.6,3.4Zm-.15-5-5-4.95,5-5,4.95,5Z"/><path class="cls-1" d="M126.63,114l11.5,6L151,118.3l-6,11.5,1.75,12.87-11.5-6-12.88,1.75,6-11.5L126.63,114Zm4.84,7.37-2.12,12.06,12.06,2.13,2.13-12.06Z"/><path class="cls-1" d="M122,49l3.4,6.6L132,59l-6.6,3.4L122,69l-3.4-6.6L112,59l6.6-3.4Zm-.15,5-4.95,5,4.95,4.95,5-4.95Z"/></svg>