<?xml version="1.0" encoding="UTF-8"?>
<svg fill="none" viewBox="0 0 24 24" xmlns="http://www.w3.org/2000/svg">
<path d="m22 16.92v3c0.0011 0.2785-0.0559 0.5542-0.1675 0.8093-0.1116 0.2552-0.2752 0.4843-0.4804 0.6726-0.2053 0.1882-0.4475 0.3316-0.7114 0.4208-0.2638 0.0892-0.5433 0.1224-0.8207 0.0973-3.0772-0.3344-6.033-1.3859-8.63-3.07-2.4162-1.5353-4.4647-3.5838-6-6-1.69-2.6088-2.7418-5.579-3.07-8.67-0.02499-0.27654 0.00788-0.55524 0.0965-0.81838 0.08863-0.26313 0.23107-0.50493 0.41827-0.71s0.41504-0.36891 0.66903-0.4811c0.25398-0.11219 0.52854-0.17026 0.8062-0.17052h3c0.48531-0.00478 0.9558 0.16708 1.3238 0.48353s0.60831 0.75591 0.67623 1.2365c0.12663 0.96006 0.36145 1.9027 0.7 2.81 0.13455 0.35792 0.16367 0.74691 0.08391 1.1209-0.07975 0.37396-0.26504 0.71723-0.53391 0.98912l-1.27 1.27c1.4236 2.5035 3.4964 4.5764 6 6l1.27-1.27c0.2719-0.2689 0.6151-0.4542 0.9891-0.5339 0.374-0.0798 0.763-0.0506 1.1209 0.0839 0.9073 0.3385 1.8499 0.5734 2.81 0.7 0.4858 0.0685 0.9294 0.3132 1.2465 0.6875 0.3172 0.3743 0.4857 0.8521 0.4735 1.3425z" stroke="#585CE5" stroke-linecap="round" stroke-linejoin="round" stroke-width="2"/>
</svg>
