<?xml version="1.0" encoding="UTF-8"?>
<svg viewBox="0 0 20 20" xmlns="http://www.w3.org/2000/svg">
<path d="m17.5 14.125c-1.25-2.375-2.5-2-3.875-2.125 0.125 0.375 0.125 0.75 0.125 1.25 2 0.5 2.5 2.875 2.5 4.25v1.25h-2.5v-1.25h1.25s0-3.125-1.875-3.125-1.875 3-1.875 3.125h1.25v1.25h-2.5v-1.25c0-1.375 0.5-3.875 2.5-4.25 0-0.75-0.125-1.375-0.25-1.625-0.25-0.125-0.5-0.375-0.5-0.75 0-0.75 1-0.5 1.75-1.875 0 0 1.125-2.875 0.75-5.375h-1.25c0-0.25 0.125-0.375 0.125-0.625s0-0.375-0.125-0.625h1c-0.375-1.25-1.625-2.375-4-2.375s-3.625 1.125-4.125 2.5h1c0 0.25-0.125 0.375-0.125 0.625s0 0.375 0.125 0.625h-1.25c-0.25 2.5 0.75 5.375 0.75 5.375 0.75 1.25 1.75 1 1.75 1.875 0 0.625-0.625 0.875-1.375 1-0.25 0.25-0.5 0.75-0.5 1.75v1.5c0.75 0.25 1.25 1 1.25 1.75 0 0.875-0.875 1.75-1.875 1.75s-1.875-0.875-1.875-1.875c0-0.875 0.5-1.5 1.25-1.75v-1.5c0-0.625 0.125-1.125 0.25-1.625-0.875 0.125-1.875 0.5-2.75 2.125-0.75 1.375-1.125 5.875-1.125 5.875h17.125c0.125 0-0.25-4.5-1-5.875zm-9.375-11c0-1 0.875-1.875 1.875-1.875s1.875 0.875 1.875 1.875-0.875 1.875-1.875 1.875-1.875-0.875-1.875-1.875z" fill="#fff"/>
<path d="m6.25 16.875c0 0.1658-0.06585 0.3247-0.18306 0.4419-0.11721 0.1173-0.27618 0.1831-0.44194 0.1831s-0.32473-0.0658-0.44194-0.1831c-0.11721-0.1172-0.18306-0.2761-0.18306-0.4419s0.06585-0.3247 0.18306-0.4419c0.11721-0.1173 0.27618-0.1831 0.44194-0.1831s0.32473 0.0658 0.44194 0.1831c0.11721 0.1172 0.18306 0.2761 0.18306 0.4419z" fill="#fff"/>
</svg>
